<svg id="e2745e80-illustration" xmlns="http://www.w3.org/2000/svg" viewBox="0 0 350 350"><defs><style>.cls-e2745e80-1{fill:none;}.face__bg{fill:#ececeb;}.cls-e2745e80-3{clip-path:url(#e2745e80-clip-path);}.cls-e2745e80-15,.cls-e2745e80-4{fill:#856400;}.cls-e2745e80-5{fill:#e5c828;}.cls-e2745e80-11,.cls-e2745e80-13,.cls-e2745e80-14,.cls-e2745e80-15,.cls-e2745e80-16,.cls-e2745e80-17,.cls-e2745e80-18,.cls-e2745e80-19,.cls-e2745e80-5,.cls-e2745e80-6,.cls-e2745e80-7,.cls-e2745e80-8,.cls-e2745e80-9{fill-rule:evenodd;}.cls-e2745e80-6{fill:#dfbda5;}.cls-e2745e80-7{fill:#c3987b;}.cls-e2745e80-8{fill:#b48c71;}.cls-e2745e80-10,.cls-e2745e80-9{fill:#8b6651;}.cls-e2745e80-11,.cls-e2745e80-12{fill:#2b2b2b;}.cls-e2745e80-13{fill:#e8cab6;}.cls-e2745e80-14{fill:#9e7700;}.cls-e2745e80-16{fill:#bf8f00;}.cls-e2745e80-17{fill:#755800;}.cls-e2745e80-18{fill:#ccad14;}.cls-e2745e80-19{fill:#474747;}</style><clipPath id="e2745e80-clip-path"><circle class="cls-e2745e80-1" cx="175" cy="175" r="175"/></clipPath></defs><circle class="face__bg" cx="175" cy="175" r="175"/><g class="cls-e2745e80-3"><rect class="cls-e2745e80-4" x="89.19" y="215.23" width="17.75" height="120.52" transform="translate(-110.39 70.41) rotate(-25.87)"/><polygon class="cls-e2745e80-5" points="109.32 211.28 40.66 244.57 43.52 282.31 124.68 242.94 109.32 211.28"/><polygon class="cls-e2745e80-6" points="275.93 135.41 285.67 255.11 232.04 260.08 221.81 295.66 177.31 283.88 149.84 278.94 131.94 237.02 117.47 210.99 80.7 133.78 142.78 148.44 207.66 142.46 222.64 120.64 240.77 136.97 275.93 135.41"/><polygon class="cls-e2745e80-7" points="215.69 199.74 195.07 168.85 157.44 148.84 209.49 143.52 215.69 199.74"/><polygon class="cls-e2745e80-7" points="244.48 188.33 253.56 158.37 271.58 135.85 239.69 139.14 244.48 188.33"/><polygon class="cls-e2745e80-7" points="280.56 192.31 117.47 210.99 149.84 278.94 172.34 284.17 191.8 287.41 221.81 295.66 228.09 273.81 234.48 261.7 285.67 255.11 280.56 192.31"/><polygon class="cls-e2745e80-8" points="164.62 205.59 172.77 268.91 234.48 261.7 221.81 295.66 174.63 286.98 149.84 278.94 126.83 230.64 125.73 221.28 117.47 210.99 139.25 208.49 164.62 205.59"/><polygon class="cls-e2745e80-7" points="157.44 148.84 164.62 205.59 139.25 208.49 133.62 185.68 145.28 184.67 142.78 150.34 157.44 148.84"/><polygon class="cls-e2745e80-9" points="234.48 261.7 164.73 269.9 171.97 284.08 221.81 295.66 234.48 261.7"/><polygon class="cls-e2745e80-9" points="139.25 208.49 126.83 230.64 117.47 210.99 139.25 208.49"/><rect class="cls-e2745e80-10" x="209.84" y="196.33" width="5.11" height="65.49" transform="translate(-42.3 409.95) rotate(-82.55)"/><polygon class="cls-e2745e80-9" points="215.69 199.74 232.14 208.53 245.27 196.35 230.38 196.46 215.69 199.74"/><polygon class="cls-e2745e80-11" points="157.44 148.84 210.77 158.04 209.29 143.54 188.63 143.81 157.44 148.84"/><polygon class="cls-e2745e80-11" points="241.38 155.7 239.69 139.14 253.65 135.53 271.58 135.85 241.38 155.7"/><path class="cls-e2745e80-11" d="M253.56,171.94a6.21,6.21,0,1,0-6.21-6.21A6.22,6.22,0,0,0,253.56,171.94Z"/><rect class="cls-e2745e80-12" x="185.51" y="158.5" width="5.36" height="24.59" transform="translate(-2.14 339.19) rotate(-83.73)"/><polygon class="cls-e2745e80-11" points="142.78 150.34 145.28 184.67 133.62 185.68 129.26 169.2 102.93 180.46 80.7 133.78 115.96 141.22 142.78 150.34"/><polygon class="cls-e2745e80-9" points="112.33 185.17 122.47 181.12 129.13 200.53 112.33 185.17"/><polygon class="cls-e2745e80-13" points="222.64 120.64 239.69 139.14 245.27 196.35 215.69 199.74 209.49 143.52 222.64 120.64"/><polygon class="cls-e2745e80-14" points="137.67 88.74 115.22 89.46 95.55 94.1 86.86 111.79 80.7 133.78 117.44 107.82 137.67 88.74"/><polygon class="cls-e2745e80-15" points="95.55 94.1 152.58 63.04 203.41 42 267.1 76.14 196.44 86.4 137.67 88.74 118.95 91.12 95.55 94.1"/><polygon class="cls-e2745e80-16" points="203.41 42 112.84 49.3 95.55 94.1 203.41 42"/><polygon class="cls-e2745e80-14" points="95.55 94.1 67.8 68.29 33.22 99.7 62.54 99.48 95.55 94.1"/><polygon class="cls-e2745e80-16" points="33.22 99.7 -17.66 146.93 57.44 113.51 95.55 94.1 33.22 99.7"/><polygon class="cls-e2745e80-17" points="-17.66 146.93 80.7 133.78 95.55 94.1 -17.66 146.93"/><polygon class="cls-e2745e80-5" points="149.84 278.94 221.81 295.66 265.55 415.9 128.05 429.46 149.84 278.94"/><polygon class="cls-e2745e80-16" points="119.43 298.19 149.84 278.94 168.31 364.88 152.37 367.63 130.61 327.29 119.43 298.19"/><polygon class="cls-e2745e80-18" points="102.2 374.73 75.84 320.5 119.43 298.19 152.37 367.63 102.2 374.73"/><polygon class="cls-e2745e80-5" points="137.67 88.74 297.63 73.16 303.47 132.57 239.69 139.14 222.64 120.64 209.29 143.54 142.78 150.34 137.35 115.05 137.67 88.74"/><polygon class="cls-e2745e80-19" points="155.93 101.4 214.61 95.56 197.32 128.19 158.61 131.84 155.93 101.4"/><polygon class="cls-e2745e80-19" points="284.98 88.66 226.28 94.22 249.52 122.91 288.21 119.04 284.98 88.66"/><polygon class="cls-e2745e80-18" points="142.78 150.34 80.7 133.78 137.67 88.74 142.78 150.34"/><polygon class="cls-e2745e80-16" points="221.81 295.66 247.25 302.75 253.89 346 239.69 346 221.81 295.66"/><polygon class="cls-e2745e80-18" points="247.25 302.75 289.37 344.27 253.89 346 247.25 302.75"/></g></svg>